<svg xmlns="http://www.w3.org/2000/svg" style="display: none;">
  <symbol id="icon-arrow" viewBox="0 0 13 24" stroke="none">
    <path fill-rule="evenodd" clip-rule="evenodd" d="M13 12 1.4 0 0 1.4 10.2 12 0 22.6 1.4 24z" />
  </symbol>
  <symbol id="icon-caduceus" viewBox="0 0 96 84" stroke="none">
    <path
      d="M92.552 19.225s-.327.113-1.03.276c-.702.145-1.731.291-2.94.291-1.994 0-4.429-.405-6.88-1.864-2.549-1.507-4.591-3.534-6.846-5.333-2.223-1.783-4.87-3.388-8.318-3.372-.8 0-1.634.082-2.5.26-4.559 1.005-8.66 5.252-12.043 9.175-.768.907-1.487 1.799-2.14 2.658V15.27c3.431-.827 5.98-3.858 5.98-7.522 0-4.28-3.497-7.748-7.81-7.748-4.314 0-7.811 3.453-7.811 7.748 0 3.648 2.549 6.695 5.98 7.522v6.03a63 63 0 0 0-2.14-2.642c-3.383-3.907-7.468-8.154-12.043-9.159-.866-.178-1.7-.26-2.5-.26-3.464-.016-6.095 1.59-8.317 3.372-2.255 1.8-4.298 3.81-6.847 5.333-2.451 1.46-4.902 1.865-6.896 1.865-1.209 0-2.238-.146-2.941-.308-.703-.146-1.03-.276-1.03-.276L0 17.961l1.111 3.501c.05.21 2.696 8.283 12.5 9.483.736.08 1.455.13 2.141.13 8.432-.114 13.269-5.723 17.86-6.306a7 7 0 0 1 1.324-.114c2.467-.016 5.654 1.005 8.121 2.075a39 39 0 0 1 3.137 1.508v13.357c-2.304-.778-4.624-1.524-6.748-2.27-2.419-.859-4.575-1.734-6.014-2.61-1.487-.891-1.96-1.67-1.928-1.928-.016-.13-.016-.211-.016-.308.065-1.103.327-1.313 1.111-1.8.8-.421 2.206-.616 3.562-.616 2.043 0 3.873.405 3.873.39.98.21 1.96-.406 2.173-1.379a1.813 1.813 0 0 0-1.405-2.155c-.082-.017-2.157-.47-4.657-.47-1.65 0-3.497.178-5.196 1.004-1.7.762-3.203 2.659-3.138 5.042 0 .194 0 .421.033.664.392 2.967 2.925 4.377 5.654 5.739 2.68 1.248 6.03 2.35 9.33 3.436-1.193.568-2.287 1.167-3.251 1.848-1.798 1.264-3.334 2.983-3.4 5.333 0-.016-.016.033-.016.179-.016 2.61 1.52 4.62 3.301 5.981 1.324 1.021 2.876 1.864 4.428 2.626-.85.519-1.666 1.07-2.369 1.75-1.177 1.103-2.108 2.643-2.108 4.49 0 .325.033.666.098 1.038.327 2.01 1.552 3.518 3.023 4.555-.098.033-.196.049-.31.081-1.487.406-2.893.843-4.118 1.573-1.193.697-2.386 1.977-2.468 3.696-.016.145-.016.308-.016.502-.065 2.48 1.39 4.377 2.925 5.122 1.52.795 3.023.876 3.89.892.424 0 .685-.032.734-.032.997-.082 1.749-.973 1.65-1.962a1.81 1.81 0 0 0-1.976-1.637s-.131.016-.409.016c-.54 0-1.536-.113-2.14-.454-.589-.389-.948-.6-.997-1.929 0-.064 0-.146.016-.275 0-.243.163-.616 1.536-1.232 1.667-.714 4.428-1.232 7.157-1.994 1.667.47 3.334.827 4.788 1.232 1.373.356 2.533.762 3.186 1.167.687.454.687.584.72.81v.276c-.066 1.33-.41 1.54-1.014 1.945-.62.34-1.617.454-2.157.454-.278 0-.376-.016-.376-.016a1.817 1.817 0 0 0-1.993 1.637c-.098.989.637 1.88 1.65 1.978.05 0 .31.016.72.016.865 0 2.369-.081 3.888-.875 1.553-.746 2.99-2.643 2.925-5.139 0-.146 0-.308-.016-.486-.164-2.367-2.059-3.664-3.758-4.344-.98-.406-2.06-.714-3.17-1.006 1.486-1.053 2.68-2.512 3.055-4.603.05-.357.082-.68.082-1.005 0-2.496-1.618-4.296-3.366-5.528-.36-.243-.752-.47-1.144-.697.507-.26 1.03-.502 1.536-.778 3.007-1.62 6.177-3.858 6.242-7.862v-.13c-.163-3.209-2.647-5.09-5.392-6.58a47 47 0 0 0-1.275-.633c1.569-.519 3.154-1.037 4.657-1.572 2.517-.892 4.837-1.816 6.683-2.918 1.798-1.102 3.432-2.48 3.677-4.733 0-.211.016-.39.016-.6.066-2.383-1.421-4.28-3.12-5.041-1.7-.827-3.547-.99-5.197-1.005-2.5 0-4.575.454-4.657.47-.98.21-1.618 1.183-1.389 2.156a1.84 1.84 0 0 0 2.173 1.394s1.83-.39 3.873-.39c1.34-.015 2.745.195 3.546.617.8.47 1.046.697 1.111 1.799 0 .081 0 .194-.016.373.13.26-.997 1.588-3.579 2.74-2.892 1.36-7.043 2.625-11.095 4.003V28.27c.752-.405 1.83-.956 3.137-1.507 2.468-1.07 5.638-2.091 8.105-2.075.474 0 .915.032 1.324.113 4.591.584 9.428 6.192 17.86 6.306.686 0 1.405-.049 2.14-.13 9.805-1.2 12.468-9.256 12.5-9.483l1.112-3.5zm-57.616 1.8c-.654 0-1.307.048-1.945.161-6.503 1.313-10.654 6.37-17.239 6.258q-.832 0-1.716-.098c-3.856-.47-6.127-2.22-7.582-3.874-.032-.032-.049-.065-.065-.081.343.016.686.032 1.062.032 2.484 0 5.621-.502 8.759-2.382 3.023-1.8 5.212-4.004 7.238-5.61 2.06-1.62 3.759-2.576 6.046-2.593.54 0 1.128.065 1.782.195 2.68.438 6.879 4.198 9.967 7.943.474.567.932 1.118 1.356 1.653-2.336-.859-5.049-1.572-7.663-1.605m8.922-13.26c0-2.27 1.863-4.118 4.167-4.118 2.287 0 4.15 1.848 4.15 4.118 0 2.269-1.863 4.117-4.15 4.133-2.304-.016-4.167-1.864-4.167-4.133M39.854 51.66v-.065c-.065-.826.98-2.156 3.48-3.469.834-.454 1.815-.891 2.86-1.313v10.52a46 46 0 0 1-2.01-1.004c-2.875-1.54-4.395-3.032-4.33-4.669m5.099 12.271c.359-.26.784-.519 1.225-.778v6.824c-1.814-.81-2.86-1.783-3.04-3.063-.032-.162-.032-.276-.032-.406 0-.81.474-1.572 1.846-2.577m2.86 6.679-.148-.05h.686c-.114.033-.212.082-.326.114-.082-.032-.148-.048-.213-.064m5.065-3.664c-.197 1.102-.866 1.864-2.239 2.642a5 5 0 0 1-.8.39v-6.825c.865.486 1.584.989 2.09 1.475.736.73.965 1.232.981 1.864 0 .146-.016.292-.032.454m3.3-15.383v.08c-.016 1.168-.572 2.06-1.911 3.146-1.128.891-2.697 1.702-4.412 2.528v-10.52c1.797.73 3.366 1.508 4.46 2.286 1.39 1.021 1.863 1.864 1.863 2.48M81.98 27.346q-.882.098-1.716.098c-6.585.113-10.736-4.945-17.223-6.258a11 11 0 0 0-1.944-.162c-2.615.033-5.327.746-7.664 1.605.425-.535.883-1.102 1.356-1.653 3.089-3.745 7.288-7.505 9.968-7.943a9 9 0 0 1 1.781-.195c2.288.017 3.987.973 6.046 2.594 2.026 1.588 4.232 3.793 7.255 5.592 3.138 1.864 6.291 2.383 8.759 2.383.36 0 .719-.016 1.062-.032-1.438 1.686-3.791 3.501-7.68 3.971" />
  </symbol>
  <symbol id="icon-consultation" viewBox="0 0 63 70" stroke="none">
    <path fill-rule="evenodd" clip-rule="evenodd"
      d="M55.597 49.958h-7.373v7.429zM19.787 4.119h1.108a2.03 2.03 0 0 1 1.435.597c.369.37.596.88.596 1.435v.241h.242a2.03 2.03 0 0 1 1.434.597c.37.369.597.866.597 1.434v1.094a2.03 2.03 0 0 1-.597 1.435c-.369.369-.88.596-1.434.596h-.242v.242a2.03 2.03 0 0 1-.596 1.435c-.37.369-.867.596-1.435.596h-1.108a2.03 2.03 0 0 1-1.435-.596 2.03 2.03 0 0 1-.596-1.435v-.242h-.242a2.03 2.03 0 0 1-1.434-.596 2 2 0 0 1-.597-1.435V8.41c0-.554.227-1.065.597-1.435.369-.369.88-.596 1.434-.596h.242v-.242c0-.554.227-1.065.596-1.434a2.08 2.08 0 0 1 1.435-.583m1.108 2.003h-1.122v1.264c0 .554-.455 1.009-1.009 1.009H17.5V9.53h1.264c.554 0 1.009.455 1.009 1.009v1.264h1.136V10.54c0-.554.455-1.009 1.009-1.009h1.264V8.395h-1.264a1.01 1.01 0 0 1-1.009-1.009zM4.773 2.514C9.957.838 15.156 0 20.34 0s10.383.838 15.582 2.514l.838.27-.156.867-1.449 7.883h.767V10.27h2.344V8.864c0-1.094.44-2.088 1.165-2.799a3.962 3.962 0 0 1 5.61 0 3.95 3.95 0 0 1 1.165 2.799v1.406h2.912v1.264h9.077c1.25 0 2.372.511 3.196 1.335a4.5 4.5 0 0 1 1.335 3.196v44.091c0 1.25-.511 2.373-1.335 3.196a4.5 4.5 0 0 1-3.196 1.336H39.205l1.136 4.034.355 1.278H0l.355-1.278L5 52.244l.085-.298.242-.199 3.679-3.125H3.153v-18.04a11.2 11.2 0 0 1-1.491-2.926 11.1 11.1 0 0 1-.582-3.58c0-2.57.866-4.957 2.33-6.86a11.2 11.2 0 0 1 2.968-2.685L4.105 3.68l-.199-.88zm30.014 11.037-.114.625c.44.327.853.696 1.236 1.08V13.55zm-.554 2.87-.582.156c-4.39 1.164-8.765 1.747-13.14 1.747s-8.764-.583-13.139-1.747l-.312-.086a9 9 0 0 0-2.046 1.96 9.2 9.2 0 0 0-1.903 5.626c0 1.037.17 2.031.483 2.94a9.4 9.4 0 0 0 1.392 2.642l.213.27v16.677h6.207l3.551-3.012.256-.213a14.5 14.5 0 0 1-5.128-3.324 14.54 14.54 0 0 1-4.261-10.298c0-3.836 1.477-7.316 3.906-9.915l.213.17.128-.142q.597.532 1.236 1.023l.114.07-.015.015a22 22 0 0 0 5.426 2.997c2.415.91 5.029 1.42 7.77 1.42a21.661 21.661 0 0 0 8.367-1.648l.042.086.554-.184a14.5 14.5 0 0 1 1.35 6.122c0 4.02-1.634 7.656-4.262 10.298a14.6 14.6 0 0 1-5.127 3.324l.255.213 3.551 3.011h6.563V29.872l.156-.241c.497-.81.895-1.69 1.165-2.642.256-.91.398-1.861.398-2.87a10.47 10.47 0 0 0-2.898-7.244c-.17-.156-.327-.312-.483-.454M20.341 2.017c-4.702 0-9.404.71-14.105 2.145l2.23 10.625a48.5 48.5 0 0 0 12.031 1.52c4.006 0 8.012-.511 12.017-1.52L34.46 4.162c-4.701-1.435-9.403-2.145-14.12-2.145m12.003 24.091c-1.009.34-2.032.625-3.083.838a24.022 24.022 0 0 1-13.14-1.094 24.1 24.1 0 0 1-6.007-3.338 12.5 12.5 0 0 0-2.302 7.259 12.46 12.46 0 0 0 3.68 8.863 12.5 12.5 0 0 0 8.863 3.68 12.46 12.46 0 0 0 8.864-3.68c2.258-2.272 3.679-5.412 3.679-8.863 0-1.279-.2-2.5-.554-3.665m-9.787 18.054a14 14 0 0 1-2.202.17c-.724 0-1.434-.056-2.13-.156v1.605c0 .256.198.526.497.739.412.284 1.008.469 1.676.469s1.25-.185 1.662-.469c.312-.213.497-.483.497-.739zm-.213 4.46c-.583.242-1.25.37-1.96.37-.625 0-1.222-.1-1.762-.299l1.762 8.708zm11.42 6.918V54.53H23.636v8.026c0 .923.384 1.761.98 2.358.611.61 1.45.98 2.358.98h3.438a3.34 3.34 0 0 0 2.358-.98c.61-.61.98-1.449.98-2.358V55.54zm-2.017 7.003v-6.009h-6.094v6.009c0 .369.157.696.398.937s.583.398.938.398h3.437c.355 0 .696-.156.938-.398a1.37 1.37 0 0 0 .383-.937m-10.454.056v5.384H38.04l-4.19-14.9-8.793-7.458-3.736 16.833zm-2.003 5.384v-5.952l-3.38-16.633-9.05 7.685-4.204 14.9H19.29m12.4-19.36 1.776 1.505a4.9 4.9 0 0 1 1.008-1.492l.015-.014zm3.452 2.925.227.2.242.198.085.298.54 1.946c.44.313.98.498 1.577.498.752 0 1.42-.299 1.917-.796a2.72 2.72 0 0 0 .796-1.918c0-.752-.299-1.42-.796-1.917a2.72 2.72 0 0 0-1.917-.796c-.753 0-1.42.299-1.918.796a2.93 2.93 0 0 0-.753 1.491m1.79 5.071q.426.086.895.086a4.75 4.75 0 0 0 3.338-1.378 4.7 4.7 0 0 0 1.378-3.338 4.75 4.75 0 0 0-1.378-3.338 4.67 4.67 0 0 0-3.253-1.378v-2.216H51.86V43.04H37.91v-1.15h4.32v-2.018h-4.32v-1.15h13.95v-2.017H37.91v-3.097h7.558v-12.06h-6.122a12.5 12.5 0 0 0-1.435-3.735H56.79v30.113H46.236v11.079h-8.622zm1.236 4.418h9.275l.299-.298 10.752-10.853.299-.298V15.81h-9.674V13.55h9.077c.696 0 1.321.284 1.776.739a2.5 2.5 0 0 1 .738 1.775v44.091a2.5 2.5 0 0 1-.738 1.776 2.5 2.5 0 0 1-1.776.739h-19.56zm1.434-37.457c.015.184.015.369.015.54 0 1.178-.171 2.315-.47 3.409a12.5 12.5 0 0 1-1.235 2.897v1.18h5.554V23.58zm.682-13.31h3.92V8.864c0-.54-.227-1.037-.568-1.392a1.97 1.97 0 0 0-1.378-.583c-.54 0-1.036.213-1.377.568a1.93 1.93 0 0 0-.569 1.378v1.321zm-2.358 5.27h9.19v-3.253h-9.19zm4.318-8.04c-.653 0-1.164.526-1.164 1.179s.525 1.179 1.164 1.179c.654 0 1.18-.526 1.18-1.179-.015-.653-.54-1.179-1.18-1.179m9.603 23.551v-2.017h-4.802v2.017zm0-4.219v-2.017h-4.802v2.017zm0-3.153v-2.017h-4.802v2.017z" />
  </symbol>
  <symbol id="icon-diagnostics" viewBox="0 0 73 70" stroke="none">
    <path fill-rule="evenodd" clip-rule="evenodd"
      d="M3.02 24.12h6.02l-.16-.82a4 4 0 0 1-.08-.78q.01-1.18.68-2.05a3 3 0 0 1 2.48-1.2h15.22c.97 0 1.93.42 2.68 1.08a4.6 4.6 0 0 1 1.48 2.53l.25 1.24h2.08L38.12 4l.18-.84h5.12l.51-2.34.18-.82h21.74l.32.43 6.36 8.64.28.4-.1.46-.16.75-.1.45-3.81 17.21h2.62a1.07 1.07 0 0 1 1.02 1.37L64 69.1c-.06.43-.39.79-.84.88l-.2.01H11.31l-.02-.01-.01-.02-.02-.01-.01-.02-.02-.01-.01-.02-.02-.01h-.01l-.01-.02h-.03l-.02-.01-.07-.1-.02-.01-.01-.01-.02-.02-.01-.01-.02-.02-.01-.01-.02-.02-.03-.03-.01-.01v-.02l-.02-.01-.01-.02-.02-.01-.01-.02-.02-.01-.01-.02-.02-.01v-.14l-.01-.01-.02-.02-.01-.04-.02-.02v-.18l-.39-1.99H7.94l-.18-.84L.28 32.22 0 30.93h3.1L2 25.38c-.11-.57.26-1.14.83-1.24q.1-.02.2-.02M37.27 57.4l2.06.44 2.2-10.21-2.06-.44zm-3.61 0 2.07.44 3.53-16.44-2.07-.44zm4.01-22.52c-1.12 0-2.24.48-3.13 1.25a5.5 5.5 0 0 0-1.78 2.95l-4.34 20.2q-.11.49-.1.97.01 1.34.73 2.3.74 1 2.02 1.3.38.08.8.08h6.99c1.12 0 2.24-.48 3.13-1.24a5.5 5.5 0 0 0 1.78-2.95l4.34-20.2q.1-.5.1-.97c0-.89-.27-1.68-.73-2.31a3.4 3.4 0 0 0-2.02-1.29 4 4 0 0 0-.8-.09zm7 2.13h-7c-.6 0-1.23.28-1.73.72-.54.46-.95 1.1-1.1 1.8l-4.34 20.2q-.06.26-.06.52 0 .61.32 1.02.27.37.77.49.16.04.36.03h7c.6 0 1.22-.28 1.73-.72.54-.46.95-1.1 1.1-1.8l4.34-20.2q.06-.26.06-.52 0-.61-.32-1.02a1.3 1.3 0 0 0-1.13-.52m21.78-8.64 3.8-17.22h-8.9l.28-1.29 1.7-7.72H45.8L40 28.36zm-28.61 0 5.1-23.06H40l-5.1 23.06zm-5.12 0 .46-2.11h-2.47c-.5 0-.94-.35-1.03-.86l-.42-2.1c-.1-.52-.4-1-.81-1.35a2 2 0 0 0-1.29-.54H11.95q-.14 0-.24.03a1 1 0 0 0-.55.34q-.23.3-.23.76l.03.36.4 2.07.03.24c0 .58-.47 1.06-1.06 1.06h-6l.93 4.7H18.6l.36-1.75c.1-.5.54-.84 1.03-.84h12.72zm-14.56 4.7H2.64l7 31.92h1.84zm51.77-2.59H20.87l-7.84 37.4h49.05zM65 26.11V24H44.34v2.12zm1.05-5.01v-2.13h-8.95v2.13zm1.14-5.14v-2.12h-8.95v2.12zm-19.56-2.23h-.85l-.18.84-1.23 5.55-.28 1.3h8.17l.18-.85 1.23-5.55.29-1.29h-7.32m4.7 2.11H48.5l-.77 3.43h3.84zm4.84-7.35V6.36h-8.95V8.5zm12.67.52-4.5-6.12L64 9.01z" />
  </symbol>
  <symbol id="icon-doctor" viewBox="0 0 75 87" fill="none">
    <path stroke-linecap="round" stroke-linejoin="round" stroke-miterlimit="10" stroke-width="3.5"
      d="M23.7 21.58c0 .64-.02 1.82-.07 4.18-.07 3.36-.16 4.92.7 5.43.42.24.93.16 1.3.05 0 0 .57 8.97 8.86 11.6 1.42.44 2.94.55 4.39.21 4.83-1.13 8.63-5.67 9.64-11.8.3.04.75.06 1.14-.2.9-.6.7-2.21.61-4.92-.03-1.06-.04-2.67.03-4.68v-2.5M51.45 15.39c1.4-7.98-2.65-13.64-2.65-13.64-.09 1.54-.68 1.86-1.6 2.04-1.19.24-2.42.17-3.6-.1-1.72-.38-7.7-1.85-11.95-.92-.28.06-5.68 1.32-7.8 5.8-1.09 2.28-1 4.72-.95 6.37" />
    <path stroke-linecap="round" stroke-linejoin="round" stroke-miterlimit="10" stroke-width="3.5"
      d="M23.69 21.58a4 4 0 0 0 2.15-.88c1.84-1.58.9-4.17 2.47-6.05 1.32-1.58 3.59-1.67 4.22-1.7 3.67-.15 4.4 2.97 9.8 5.6 3.06 1.48 8.16.4 8.16.4M36.77 53.92l-2.38-2.4c-.3-.31-.3-.8 0-1.11l2.38-2.4c.3-.32.79-.32 1.09 0l2.37 2.4c.3.3.3.8 0 1.1l-2.37 2.4c-.3.3-.8.3-1.1 0M28.35 45.73l6.01 4.7M40.29 50.49l5.94-4.65M36.49 53.64l-6.24 11.31M43.87 64.98l-5.65-11.43M44.05 65.33l-.38.3M43.87 64.98l-.2.65-6.58 19.2M30.25 64.95l-.02.03-17.5-13.83.2-.05 12.7-2.93z" />
    <path stroke-linecap="round" stroke-linejoin="round" stroke-miterlimit="10" stroke-width="3.5"
      d="M37.09 84.83H13.66A12 12 0 0 1 1.75 72.67l.07-9.55c.02-5.08 3.14-9.77 7.94-11.26q.4-.11.8-.2l2.18-.52 17.5 13.84.03.03.03.1zM61.76 51.11 44.05 65.33l-.18-.35L49 48.17l12.72 2.94zM37.09 84.83h23.83c6.6 0 11.95-5.44 11.91-12.13l-.04-9.53c.02-5.1-3.11-9.8-7.92-11.3q-.4-.12-.8-.22l-2.3-.54h0M30.27 65.01l-.02-.06M28.24 38.44l.22 7.29M46.12 37.65l.21 8.19M28.35 45.73l-2.72 2.44M46.23 45.84l2.76 2.33" />
    <path stroke-linecap="round" stroke-linejoin="round" stroke-miterlimit="10" stroke-width="3.5" d="M21.73 69.48H9.38v7.55h12.35z" />
  </symbol>
  <symbol id="icon-document" viewBox="0 0 68 88" fill="none">
    <path stroke-linecap="round" stroke-linejoin="round" stroke-miterlimit="10" stroke-width="3.5" d="M16.38 47.28H36.2M16.38 55.7H36.2M16.38 64.12H36.2M44.8 6.89V1.75H22.35v5.14" />
    <path stroke-linecap="round" stroke-linejoin="round" stroke-miterlimit="10" stroke-width="3.5"
      d="M22.35 6.89c0 4.2 3.44 7.6 7.68 7.6h7.1c4.24 0 7.68-3.4 7.68-7.6M59.44 79.11H8.76V8.31h9.2M49.17 8.31h10.27v70.8M26.96 6.89h13.49" />
    <path stroke-linecap="round" stroke-linejoin="round" stroke-miterlimit="10" stroke-width="3.5" d="M65.75 85.75v-84H44.8M22.35 1.75H1.75v84h64" />
    <path stroke-linecap="round" stroke-linejoin="round" stroke-miterlimit="10" stroke-width="3.5"
      d="M29.24 23.81c0 1.4-.77 3.18-1.9 4.2h-.01c-.55.5-1.18.8-1.86.8-.62 0-1.2-.26-1.72-.67a6 6 0 0 1-2.06-4.32 3.75 3.75 0 0 1 3.77-3.73 3.74 3.74 0 0 1 3.78 3.72" />
    <path stroke-linecap="round" stroke-linejoin="round" stroke-miterlimit="10" stroke-width="3.5"
      d="M33.75 32.51v4.54H17.57v-4.54a3.5 3.5 0 0 1 2.62-3.37l3.56-1c.51.41 1.1.67 1.72.67.68 0 1.31-.3 1.86-.8l3.8 1.13a3.5 3.5 0 0 1 2.62 3.37M51.56 30.44H44.8v34.58h6.76zM44.8 30.44l3.38-10.37 3.38 10.37M44.8 65.02v4.07c0 1.85 1.51 3.35 3.38 3.35s3.37-1.5 3.37-3.35v-4.07" />
  </symbol>
  <symbol id="icon-hygeia" viewBox="0 0 94 84" stroke="none">
    <path
      d="m55.72 57.16 10.35.02C81.68 57.1 93.98 43.15 94 27.85 94 12.45 81.5 0 66.07 0a27.9 27.9 0 0 0-25.45 16.36 2.02 2.02 0 0 0 3.68 1.66 23.9 23.9 0 0 1 21.8-14 23.9 23.9 0 0 1 23.89 23.81c0 6.57-2.7 12.95-7.04 17.64-4.38 4.7-10.32 7.67-16.84 7.67l-10.35-.01c-5.76 0-10.84.03-15.17.23v-3.85c15.4-.74 28.6-9.9 35.06-22.97l1.44-2.9H0l1.43 2.9a41.4 41.4 0 0 0 35.1 22.97v4.12q-1.76.15-3.3.36c-2.74.4-4.96.95-6.71 1.94-1.76.92-3.16 2.74-3.13 4.85a4.4 4.4 0 0 0 1.83 3.49c2.63 1.87 6.68 2.4 11.3 2.8v3.72a18.7 18.7 0 0 0-14.74 10.28l-1.42 2.9h36.4l-1.45-2.9a18.8 18.8 0 0 0-14.74-10.28v-3.35l.41.03c6.36.5 13.08 1.23 16.4 3.06 5.39 2.94 5.86 6 5.93 7.85q-.01.75-.1 1.17c-.06.27-.08.3-.08.3a2.03 2.03 0 0 0 1.9 2.7c.85 0 1.62-.53 1.91-1.36.06-.14.4-1.19.4-2.79.07-2.99-1.52-8-8.06-11.4-4.86-2.51-12.12-3-18.73-3.58V57.4c4.25-.2 9.38-.27 15.17-.23M6.67 27.66h63.76a37.3 37.3 0 0 1-31.88 17.89 37.2 37.2 0 0 1-31.88-17.9m43.11 52.3H27.3a14.6 14.6 0 0 1 11.24-5.25c4.53 0 8.56 2.04 11.25 5.26M36.52 63.09a46 46 0 0 1-6.7-1.04 7 7 0 0 1-2.13-.9c-.32-.3-.23-.24-.25-.33.05-.52.07-.72 1.06-1.35 1.36-.84 4.14-1.4 8.02-1.74z" />
  </symbol>
  <symbol id="icon-ward" viewBox="0 0 62 70" stroke="none">
    <path fill-rule="evenodd" clip-rule="evenodd"
      d="M35.947 5.339a.98.98 0 0 1-.776-.541 5.2 5.2 0 0 0-2.577-.68c-.305 0-.596.028-.887.07.29.18.568.374.831.596a7.6 7.6 0 0 1 1.594 1.858h2.924a5.5 5.5 0 0 0-1.026-1.234zM31.54 6.642h.111c-.124-.125-.25-.235-.374-.346a5.3 5.3 0 0 0-2.37-1.11.986.986 0 0 1-.388-1.775 7.2 7.2 0 0 1 1.94-.943 7.2 7.2 0 0 1 2.12-.319c.874 0 1.705.153 2.481.444v-1.4c0-.541.444-.985.984-.985s.984.444.984.985v1.359a6.06 6.06 0 0 1 2.869-.708c.623 0 1.233.097 1.815.278.596.18 1.15.457 1.65.804.207.139.36.36.401.638a.986.986 0 0 1-.79 1.137 4.14 4.14 0 0 0-1.898.887c-.36.305-.666.652-.915 1.054h.25c.54 0 .983.444.983.985 0 .083-.014.152-.027.236l-.984 5.02h12.084v-2.261c0-.54.443-.985.984-.985s.984.444.984.985v2.26c1.011.07 1.94.513 2.619 1.193a4.07 4.07 0 0 1 1.192 2.87V33.06a4.05 4.05 0 0 1-1.192 2.87c-.07.07-.153.139-.236.208.083.07.153.139.236.208a4.07 4.07 0 0 1 1.192 2.87v7.572h1.76v-4.202c0-.54.443-.984.983-.984s.984.443.984.984v11.538c.014.138.028.277.028.416 0 .956-.388 1.844-1.026 2.468a3.48 3.48 0 0 1-2.466 1.026h-.25v2.787a4.05 4.05 0 0 1-1.191 2.87 4.04 4.04 0 0 1-2.038 1.11v4.16c0 .54-.443.985-.983.985a.99.99 0 0 1-.984-.985v-4.063h-17.24v3.73c0 .541-.443.985-.983.985a.99.99 0 0 1-.984-.985v-3.73h-.43a4.04 4.04 0 0 1-2.868-1.192c-.014-.014-.042-.042-.056-.07a4.06 4.06 0 0 1-1.136-2.815v-2.787H18.32v2.163c.471.153.9.416 1.247.763l.07.07c.526.568.859 1.33.859 2.162 0 .403-.07.79-.222 1.151l2.647 2.912a.985.985 0 0 1-.07 1.387.983.983 0 0 1-1.385-.07l-2.467-2.717c-.222.139-.457.25-.693.333v2.829c0 .54-.443.984-.984.984a.99.99 0 0 1-.984-.984v-2.843a3.3 3.3 0 0 1-.596-.264l-2.37 2.732a.983.983 0 0 1-1.385.07.985.985 0 0 1-.07-1.387l2.55-2.801a3.2 3.2 0 0 1-.263-1.262c0-.874.36-1.65.929-2.233.346-.346.776-.61 1.247-.762v-2.164H8.232v10.609c0 .54-.444.984-.984.984a.99.99 0 0 1-.984-.984V58.101H3.492c-.956 0-1.83-.388-2.467-1.026A3.55 3.55 0 0 1 0 54.58V42.71c0-.54.443-.985.984-.985s.984.444.984.985v4.118H16.38V24.475a4.9 4.9 0 0 1-2.01.915v1.928c0 .54-.443.984-.983.984a.99.99 0 0 1-.984-.984V25.39a5 5 0 0 1-2.495-1.345 4.9 4.9 0 0 1-1.44-3.467v-6.656c0-1.359.553-2.579 1.44-3.466a4.9 4.9 0 0 1 3.465-1.443c1.122 0 2.148.375 2.98 1.013V6.933c0-.54.443-.984.983-.984a1 1 0 0 1 .998.984V9.97c.817-.61 1.83-.97 2.924-.97 1.358 0 2.578.554 3.464 1.442a4.9 4.9 0 0 1 1.442 3.467v6.656c0 1.359-.555 2.579-1.442 3.466a4.9 4.9 0 0 1-2.48 1.345v1.928c0 .54-.444.985-.984.985a.99.99 0 0 1-.984-.985v-1.928a4.7 4.7 0 0 1-1.954-.873v22.312h11.045v-7.572c0-1.123.457-2.135 1.192-2.87.069-.07.152-.139.235-.208-.083-.07-.152-.139-.236-.208a4.07 4.07 0 0 1-1.191-2.87V16.944c0-1.123.457-2.135 1.192-2.87.318-.319.679-.582 1.08-.777l-1.067-5.49c-.097-.528.25-1.055.776-1.152.07-.014.139-.014.195-.014m7.692 1.955h-6.486l.79 4.036h4.92zm8.245 23.075H31.333v1.387c0 .582.235 1.109.623 1.483.374.375.887.61 1.455.624h20.801a2.13 2.13 0 0 0 1.455-.623 2.1 2.1 0 0 0 .624-1.484V16.945c0-.582-.236-1.109-.624-1.483a2.1 2.1 0 0 0-1.483-.624H33.44c-.582 0-1.109.235-1.483.624a2.1 2.1 0 0 0-.623 1.483v12.758h16.144zm.43-24.156a5.534 5.534 0 0 1 5.543-5.547c1.538 0 2.924.624 3.921 1.623l.056.041a5.57 5.57 0 0 1 1.58 3.883c0 .54.443.984.984.984s.983-.443.983-.984a7.5 7.5 0 0 0-2.203-5.311A7.5 7.5 0 0 0 53.45 0c-2.079 0-3.95.846-5.322 2.205a7.52 7.52 0 0 0-2.203 5.325c0 .54.443.984.984.984.554-.014.998-.443.998-.998m5.543-1.193a1.192 1.192 0 1 0 1.191 1.193c.014-.652-.526-1.193-1.191-1.193m-2.287 1.193c0-.638.264-1.207.665-1.623a2.27 2.27 0 0 1 1.622-.665 2.33 2.33 0 0 1 1.621.665c.416.416.665.985.665 1.623 0 .54.444.984.984.984s.984-.443.984-.984a4.22 4.22 0 0 0-1.247-3.01A4.22 4.22 0 0 0 53.45 3.26a4.22 4.22 0 0 0-3.007 1.248 4.2 4.2 0 0 0-1.248 3.009c0 .54.444.984.984.984a.97.97 0 0 0 .984-.984M46.507 38.91c-.527 0-1.012.221-1.358.568a1.93 1.93 0 0 0-.568 1.359v.832c0 .527.221 1.012.568 1.359.346.347.831.568 1.358.568h.831c.527 0 1.012-.221 1.358-.568s.569-.832.569-1.359v-.832a1.93 1.93 0 0 0-.569-1.359 1.93 1.93 0 0 0-1.358-.569zm.804 1.969h-.749v.748h.749zm-6.278-1.97c-.526 0-1.011.222-1.358.57a1.93 1.93 0 0 0-.568 1.358v.832c0 .527.222 1.012.568 1.359.347.347.832.568 1.358.568h.831c.527 0 1.012-.221 1.359-.568a1.93 1.93 0 0 0 .568-1.359v-.832a1.93 1.93 0 0 0-.568-1.359 1.93 1.93 0 0 0-1.358-.569zm.79 1.97h-.748v.748h.748zm-6.056-1.97c-.527 0-1.012.222-1.358.57a1.93 1.93 0 0 0-.568 1.358v.832c0 .527.222 1.012.568 1.359s.831.568 1.358.568h.832c.526 0 1.011-.221 1.358-.568a1.93 1.93 0 0 0 .568-1.359v-.832a1.93 1.93 0 0 0-.568-1.359 1.93 1.93 0 0 0-1.358-.569zm.79 1.97h-.748v.748h.748zm16.685-15.351a.923.923 0 0 0-.915.915c0 .5.416.915.915.915a.923.923 0 0 0 .915-.915c0-.499-.416-.915-.915-.915m0-2.76a.923.923 0 0 0-.915.916c0 .499.416.915.915.915a.923.923 0 0 0 .915-.915c0-.5-.416-.915-.915-.915m0-2.745a.923.923 0 0 0-.915.915c0 .5.416.915.915.915a.914.914 0 1 0 0-1.83m0-2.76a.923.923 0 0 0-.915.916c0 .499.416.915.915.915a.914.914 0 1 0 0-1.83m-3.326 8.265a.923.923 0 0 0-.915.915c0 .5.416.915.915.915a.923.923 0 0 0 .915-.915c0-.499-.416-.915-.915-.915m0-2.76a.923.923 0 0 0-.915.916c0 .499.416.915.915.915a.923.923 0 0 0 .915-.915c0-.5-.416-.915-.915-.915m0-2.745a.923.923 0 0 0-.915.915c0 .5.416.915.915.915a.914.914 0 1 0 0-1.83m0-2.76a.923.923 0 0 0-.915.916c0 .499.416.915.915.915a.914.914 0 1 0 0-1.83m-15.618-.748h-.984v11.481h13.858V16.515H34.298m10.906 1.955h-9.922v7.557h9.922zM24.14 21.147h-5.778c.11.582.402 1.096.803 1.498a2.91 2.91 0 0 0 4.157 0c.416-.402.707-.916.818-1.498m-5.806-1.97h5.862V13.91c0-.805-.333-1.554-.873-2.08a2.93 2.93 0 0 0-2.079-.874 2.9 2.9 0 0 0-2.079.874 3.03 3.03 0 0 0-.845 1.691v5.658zm-1.996-3.882h-5.89v5.27c0 .804.333 1.553.874 2.08a2.91 2.91 0 0 0 4.157 0c.54-.541.873-1.276.873-2.08v-5.27zm-5.834-1.969h5.779a2.9 2.9 0 0 0-.804-1.498 2.93 2.93 0 0 0-2.078-.873 2.9 2.9 0 0 0-2.08.874 2.96 2.96 0 0 0-.817 1.497m49.5 35.458h-1.76v2.302h.25c.54 0 1.053.125 1.51.346zm-3.713 0h-2.176c-.416 0-.804.18-1.081.457a1.54 1.54 0 0 0-.457 1.082v.776h3.7v-2.315zm-5.682 2.302v-.777c0-.957.388-1.844 1.025-2.468a3.48 3.48 0 0 1 2.467-1.026h2.176v-7.572c0-.582-.236-1.109-.624-1.483a2.13 2.13 0 0 0-1.455-.624H33.411c-.568.013-1.08.25-1.455.624a2.1 2.1 0 0 0-.623 1.483v7.572h7.261c.956 0 1.843.388 2.467 1.026a3.48 3.48 0 0 1 1.025 2.468v.777zm-10.477 0v-.777c0-.416-.18-.804-.457-1.081a1.54 1.54 0 0 0-1.08-.458h-7.262v2.302h8.8zM29.38 48.784H18.334v2.302h11.045zm-12.999 0H1.954v2.662c.471-.235.984-.36 1.538-.36H16.38zm39.91 9.305h-1.274v4.728c.25-.11.47-.263.651-.444a2.1 2.1 0 0 0 .624-1.483zm-3.228 0h-21.73v2.787c0 .554.222 1.068.583 1.442l.041.041c.388.389.915.624 1.483.624h19.609V58.09zm5.432-5.034H3.492a1.53 1.53 0 0 0-1.08.444 1.53 1.53 0 0 0-.444 1.081c0 .416.18.804.457 1.082.277.277.651.444 1.081.444h55.002c.416 0 .804-.18 1.08-.458.278-.278.444-.638.458-1.054-.014-.056-.014-.125-.014-.18v-.056a1.55 1.55 0 0 0-.43-.846 1.6 1.6 0 0 0-1.108-.457m-40.299 9.36a1.15 1.15 0 0 0-.845-.347 1.23 1.23 0 0 0-.845.347 1.23 1.23 0 0 0-.347.846c0 .333.139.624.347.846.221.208.512.346.845.346s.624-.138.845-.346c.208-.222.347-.513.347-.846 0-.305-.111-.597-.305-.805zM39.897 3.8c-.776 0-1.497.208-2.107.568.305.319.582.68.832 1.054.332-.513.748-.97 1.22-1.373.11-.083.207-.166.318-.25-.097.014-.18 0-.263 0" />
  </symbol>
</svg>
